<svg xmlns="http://www.w3.org/2000/svg" width="377.953" height="146.672" viewBox="0 0 100.00006 38.806967"><g fill="#ff3b28"><path d="m16.144 31.39 3.242-.275s2.554-.138 2.554-3.415-1.691-6.244-4.52-6.244h-3.104ZM13.419.346c9.97-.138 12.246 7.658 12.246 12.867 0 5.209-4.071 5.936-4.071 5.936 3.76.591 6.76 3.929 6.76 10.62 0 6.693-6.483 7.106-6.483 7.106l-10.9.76-5.969-25.941c0-1.966 1.31-3.553 3.899-3.553 2.586 0 3.103 2.346 3.103 2.346l1.174 5.347h3.415c.379 0 3.38-.725 2.345-5.21-1.035-4.483-4.518-4.552-4.518-4.552H6.14c-2.758 0-4.105-2.38-4.105-2.38L0 0ZM29.286 8.866h7.038l1.482 23.146s.104 2.586 2.243 2.586c2.138 0 2.173-2.276 2.173-2.62 0-.345-.551-21.457-.551-21.457s.378-2.76 3.276-2.76c2.898 0 3.105 2.83 3.105 2.83l.345 27.043s-2.173.207-2.864.207c-.689 0-2.586-.345-3.138-2.07 0 0-1.035 3.036-5.38 3.036-4.347 0-5.382-4.277-5.382-4.277zM57.676 9.728c-.139 1-.656 7.278-.656 8.382s.31 3.243 2.243 3.243c1.932 0 2.276-1.863 2.517-3.14.243-1.276.622-4.242.794-8.21.172-3.966-2.139-3.897-2.139-3.897-2.173 0-2.62 2.621-2.759 3.622m.38-8.106s3.898-.415 5.38 3.69c0 0 .898-2.62 3.932-2.62h2.071l-2.76 24.593s-.172 6.555-8.314 6.555c0 0-6.588.448-6.932-5.07 0 0-.035-3.002 2.517-3.002 0 0 2.485-.241 2.485 2.588 0 0 .172 2.345 2 2.345s2.794-1.103 3.209-8.038c0 0-1.381 2.518-5.314 2.518-3.931 0-5.863-2.449-5.381-9.797.484-7.346.346-13.452 7.106-13.762M69.44 24.802h5.207s-1.31 4.105 1.07 4.105 2.656-3.415 2.656-3.415.241-2.07-2.483-3.554c-2.726-1.482-4.83-4.035-4.623-7.208.206-3.174 1.725-10.35 9.348-10.35 0 0 5.76-.378 5.76 5.244 0 5.623-2.793 5.796-3.483 5.796 0 0-2.173-.036-2.173-2.07 0-2.035.862-3.932-1.035-3.932-1.898 0-2.692 2.655-2.692 3.483 0 .828.07 1.863 1.76 3.208 1.69 1.345 4.794 2.967 4.794 7.176 0 4.208-3.206 9.865-9.244 9.865-6.037 0-5.484-4.208-4.863-8.348M86.214 27.459a2.668 2.668 0 1 0 5.337-.001 2.668 2.668 0 0 0-5.337 0M92.723 2.932H100l-7.587 18.87s-.622 1.62-2.278 1.62c0 0-2.139.07-1.69-2.517zm0 0"/></g></svg>